<?xml version="1.0" encoding="utf-8" standalone="no"?>
<!DOCTYPE svg PUBLIC "-//W3C//DTD SVG 1.1//EN"
  "http://www.w3.org/Graphics/SVG/1.1/DTD/svg11.dtd">
<svg height="576pt" version="1.1" viewBox="0 0 576 576" width="576pt" xmlns="http://www.w3.org/2000/svg" xmlns:xlink="http://www.w3.org/1999/xlink">
 <metadata>
  <rdf:RDF xmlns:cc="http://creativecommons.org/ns#" xmlns:dc="http://purl.org/dc/elements/1.1/" xmlns:rdf="http://www.w3.org/1999/02/22-rdf-syntax-ns#">
   <cc:Work>
    <dc:type rdf:resource="http://purl.org/dc/dcmitype/StillImage"/>
    <dc:date>2022-08-10T21:42:04.031442</dc:date>
    <dc:format>image/svg+xml</dc:format>
    <dc:creator>
     <cc:Agent>
      <dc:title>Matplotlib v3.4.3, https://matplotlib.org/</dc:title>
     </cc:Agent>
    </dc:creator>
   </cc:Work>
  </rdf:RDF>
 </metadata>
 <defs>
  <style type="text/css">*{stroke-linecap:butt;stroke-linejoin:round;}</style>
 </defs>
 <g id="figure_1">
  <g id="patch_1">
   <path d="M 0 576 
L 576 576 
L 576 0 
L 0 0 
z
" style="fill:#ffffff;"/>
  </g>
  <g id="axes_1">
   <g id="patch_2">
    <path d="M 53.736039 268.473224 
L 556.114273 268.473224 
L 556.114273 14.259249 
L 53.736039 14.259249 
z
" style="fill:#ffffff;"/>
   </g>
   <g id="patch_3">
    <path clip-path="url(#p0852900eb4)" d="M 76.571413 268.473224 
L 110.890473 268.473224 
L 110.890473 141.366237 
L 76.571413 141.366237 
z
" style="fill:#a52a2a;"/>
   </g>
   <g id="patch_4">
    <path clip-path="url(#p0852900eb4)" d="M 182.168519 268.473224 
L 216.487579 268.473224 
L 216.487579 124.418638 
L 182.168519 124.418638 
z
" style="fill:#a52a2a;"/>
   </g>
   <g id="patch_5">
    <path clip-path="url(#p0852900eb4)" d="M 287.765626 268.473224 
L 322.084685 268.473224 
L 322.084685 73.575843 
L 287.765626 73.575843 
z
" style="fill:#a52a2a;"/>
   </g>
   <g id="patch_6">
    <path clip-path="url(#p0852900eb4)" d="M 393.362732 268.473224 
L 427.681792 268.473224 
L 427.681792 115.944839 
L 393.362732 115.944839 
z
" style="fill:#a52a2a;"/>
   </g>
   <g id="patch_7">
    <path clip-path="url(#p0852900eb4)" d="M 498.959839 268.473224 
L 533.278898 268.473224 
L 533.278898 115.944839 
L 498.959839 115.944839 
z
" style="fill:#a52a2a;"/>
   </g>
   <g id="matplotlib.axis_1">
    <g id="xtick_1">
     <g id="line2d_1">
      <defs>
       <path d="M 0 0 
L 0 -3.5 
" id="m227020111c" style="stroke:#000000;stroke-width:0.8;"/>
      </defs>
      <g>
       <use style="stroke:#000000;stroke-width:0.8;" x="93.730943" xlink:href="#m227020111c" y="268.473224"/>
      </g>
     </g>
     <g id="line2d_2">
      <defs>
       <path d="M 0 0 
L 0 3.5 
" id="mec6b01e9e4" style="stroke:#000000;stroke-width:0.8;"/>
      </defs>
      <g>
       <use style="stroke:#000000;stroke-width:0.8;" x="93.730943" xlink:href="#mec6b01e9e4" y="14.259249"/>
      </g>
     </g>
     <g id="text_1">
      <!-- COh-Pt$_{1415}$ -->
      <g transform="translate(66.416806 280.275404)scale(0.12 -0.12)">
       <defs>
        <path d="M 3501 714 
C 3072 427 2874 344 2355 344 
C 1459 344 934 1303 934 2179 
C 934 3112 1472 4032 2381 4032 
C 2790 4032 3059 3918 3386 3715 
L 3475 4217 
C 3168 4370 2778 4440 2387 4440 
C 1158 4440 397 3316 397 2179 
C 397 927 1299 -64 2323 -64 
C 2874 -64 3066 -19 3539 280 
L 3501 714 
z
" id="CMSS17-43" transform="scale(0.015625)"/>
        <path d="M 4096 2178 
C 4096 3503 3219 4497 2214 4497 
C 1210 4497 333 3497 333 2178 
C 333 847 1222 -128 2214 -128 
C 3206 -128 4096 847 4096 2178 
z
M 2214 273 
C 1510 273 870 1057 870 2261 
C 870 3433 1549 4096 2214 4096 
C 2880 4096 3558 3433 3558 2261 
C 3558 1051 2912 273 2214 273 
z
" id="CMSS17-4f" transform="scale(0.015625)"/>
        <path d="M 2618 1891 
C 2618 2292 2522 2820 1798 2820 
C 1395 2820 1133 2623 947 2407 
L 947 4448 
L 474 4448 
L 474 32 
L 960 32 
L 960 1573 
C 960 1973 1114 2432 1549 2432 
C 2112 2432 2131 2056 2131 1839 
L 2131 32 
L 2618 32 
L 2618 1891 
z
" id="CMSS17-68" transform="scale(0.015625)"/>
        <path d="M 1664 1216 
L 1664 1585 
L 64 1585 
L 64 1216 
L 1664 1216 
z
" id="CMSS17-2d" transform="scale(0.015625)"/>
        <path d="M 2106 1856 
C 2874 1856 3501 2453 3501 3158 
C 3501 3850 2899 4453 2067 4453 
L 570 4453 
L 570 0 
L 1107 0 
L 1107 1856 
L 2106 1856 
z
M 1926 4096 
C 2669 4096 2995 3627 2995 3157 
C 2995 2720 2694 2226 1926 2226 
L 1094 2226 
L 1094 4096 
L 1926 4096 
z
" id="CMSS17-50" transform="scale(0.015625)"/>
        <path d="M 1069 2368 
L 1901 2368 
L 1901 2737 
L 1069 2737 
L 1069 3520 
L 614 3520 
L 614 2737 
L 109 2737 
L 109 2368 
L 602 2368 
L 602 749 
C 602 384 685 -64 1107 -64 
C 1427 -64 1722 25 2003 172 
L 1901 548 
C 1747 414 1562 337 1363 337 
C 1082 337 1069 696 1069 856 
L 1069 2368 
z
" id="CMSS17-74" transform="scale(0.015625)"/>
        <path d="M 1702 4058 
C 1702 4192 1696 4192 1606 4192 
C 1357 3916 979 3827 621 3827 
C 602 3827 570 3827 563 3808 
C 557 3795 557 3782 557 3648 
C 755 3648 1088 3686 1344 3839 
L 1344 461 
C 1344 236 1331 160 781 160 
L 589 160 
L 589 0 
C 896 0 1216 0 1523 0 
C 1830 0 2150 0 2458 0 
L 2458 160 
L 2266 160 
C 1715 160 1702 230 1702 458 
L 1702 4058 
z
" id="CMR17-31" transform="scale(0.015625)"/>
        <path d="M 2150 4122 
C 2150 4256 2144 4256 2029 4256 
L 128 1254 
L 128 1088 
L 1779 1088 
L 1779 457 
C 1779 224 1766 160 1318 160 
L 1197 160 
L 1197 0 
C 1402 0 1747 0 1965 0 
C 2182 0 2528 0 2733 0 
L 2733 160 
L 2611 160 
C 2163 160 2150 224 2150 457 
L 2150 1088 
L 2803 1088 
L 2803 1254 
L 2150 1254 
L 2150 4122 
z
M 1798 3703 
L 1798 1254 
L 256 1254 
L 1798 3703 
z
" id="CMR17-34" transform="scale(0.015625)"/>
        <path d="M 730 3692 
C 794 3666 1056 3584 1325 3584 
C 1920 3584 2246 3911 2432 4100 
C 2432 4157 2432 4192 2394 4192 
C 2387 4192 2374 4192 2323 4163 
C 2099 4058 1837 3973 1517 3973 
C 1325 3973 1037 3999 723 4139 
C 653 4171 640 4171 634 4171 
C 602 4171 595 4164 595 4037 
L 595 2203 
C 595 2089 595 2057 659 2057 
C 691 2057 704 2070 736 2114 
C 941 2401 1222 2522 1542 2522 
C 1766 2522 2246 2382 2246 1289 
C 2246 1085 2246 715 2054 421 
C 1894 159 1645 25 1370 25 
C 947 25 518 320 403 814 
C 429 807 480 795 506 795 
C 589 795 749 840 749 1038 
C 749 1210 627 1280 506 1280 
C 358 1280 262 1190 262 1011 
C 262 454 704 -128 1382 -128 
C 2042 -128 2669 440 2669 1264 
C 2669 2030 2170 2624 1549 2624 
C 1222 2624 947 2503 730 2274 
L 730 3692 
z
" id="CMR17-35" transform="scale(0.015625)"/>
       </defs>
       <use transform="scale(0.996264)" xlink:href="#CMSS17-43"/>
       <use transform="translate(59.855772 0)scale(0.996264)" xlink:href="#CMSS17-4f"/>
       <use transform="translate(128.880027 0)scale(0.996264)" xlink:href="#CMSS17-68"/>
       <use transform="translate(177.08497 0)scale(0.996264)" xlink:href="#CMSS17-2d"/>
       <use transform="translate(208.314083 0)scale(0.996264)" xlink:href="#CMSS17-50"/>
       <use transform="translate(268.049669 0)scale(0.996264)" xlink:href="#CMSS17-74"/>
       <use transform="translate(301.881236 -14.943915)scale(0.697382)" xlink:href="#CMR17-31"/>
       <use transform="translate(333.864418 -14.943915)scale(0.697382)" xlink:href="#CMR17-34"/>
       <use transform="translate(365.8476 -14.943915)scale(0.697382)" xlink:href="#CMR17-31"/>
       <use transform="translate(397.830782 -14.943915)scale(0.697382)" xlink:href="#CMR17-35"/>
      </g>
     </g>
    </g>
    <g id="xtick_2">
     <g id="line2d_3">
      <g>
       <use style="stroke:#000000;stroke-width:0.8;" x="199.328049" xlink:href="#m227020111c" y="268.473224"/>
      </g>
     </g>
     <g id="line2d_4">
      <g>
       <use style="stroke:#000000;stroke-width:0.8;" x="199.328049" xlink:href="#mec6b01e9e4" y="14.259249"/>
      </g>
     </g>
     <g id="text_2">
      <!-- COh-D-Pt$_{192}$Co$_{68}$ -->
      <g transform="translate(156.821 280.275404)scale(0.12 -0.12)">
       <defs>
        <path d="M 570 4416 
L 570 0 
L 2144 0 
C 3194 0 4000 980 4000 2170 
C 4000 3398 3194 4416 2144 4416 
L 570 4416 
z
M 1094 357 
L 1094 4059 
L 2003 4059 
C 2861 4059 3475 3277 3475 2170 
C 3475 1107 2867 357 2003 357 
L 1094 357 
z
" id="CMSS17-44" transform="scale(0.015625)"/>
        <path d="M 2253 1864 
C 2253 464 1670 31 1190 31 
C 1043 31 685 31 538 294 
C 704 268 826 357 826 518 
C 826 692 685 749 595 749 
C 538 749 365 723 365 506 
C 365 71 742 -128 1203 -128 
C 1939 -128 2688 674 2688 2073 
C 2688 3817 1971 4179 1485 4179 
C 851 4179 243 3628 243 2778 
C 243 1991 762 1408 1414 1408 
C 1952 1408 2189 1903 2253 2112 
L 2253 1864 
z
M 1427 1510 
C 1254 1510 1011 1542 813 1922 
C 678 2169 678 2461 678 2771 
C 678 3146 678 3405 858 3684 
C 947 3817 1114 4032 1485 4032 
C 2240 4032 2240 2885 2240 2632 
C 2240 2182 2035 1510 1427 1510 
z
" id="CMR17-39" transform="scale(0.015625)"/>
        <path d="M 2669 989 
L 2554 989 
C 2490 536 2438 459 2413 420 
C 2381 369 1920 369 1830 369 
L 602 369 
C 832 619 1280 1072 1824 1597 
C 2214 1967 2669 2402 2669 3035 
C 2669 3790 2067 4224 1395 4224 
C 691 4224 262 3604 262 3030 
C 262 2780 448 2748 525 2748 
C 589 2748 781 2787 781 3010 
C 781 3207 614 3264 525 3264 
C 486 3264 448 3258 422 3245 
C 544 3790 915 4058 1306 4058 
C 1862 4058 2227 3617 2227 3035 
C 2227 2479 1901 2000 1536 1584 
L 262 146 
L 262 0 
L 2515 0 
L 2669 989 
z
" id="CMR17-32" transform="scale(0.015625)"/>
        <path d="M 2829 1356 
C 2829 2176 2221 2816 1504 2816 
C 768 2816 173 2157 173 1356 
C 173 544 787 -64 1498 -64 
C 2227 -64 2829 563 2829 1356 
z
M 1504 337 
C 1050 337 659 709 659 1408 
C 659 2151 1114 2427 1498 2427 
C 1914 2427 2342 2126 2342 1408 
C 2342 683 1926 337 1504 337 
z
" id="CMSS17-6f" transform="scale(0.015625)"/>
        <path d="M 678 2176 
C 678 3690 1395 4032 1811 4032 
C 1946 4032 2272 4009 2400 3776 
C 2298 3776 2106 3776 2106 3553 
C 2106 3381 2246 3323 2336 3323 
C 2394 3323 2566 3348 2566 3560 
C 2566 3954 2246 4179 1805 4179 
C 1043 4179 243 3390 243 1984 
C 243 253 966 -128 1478 -128 
C 2099 -128 2688 427 2688 1283 
C 2688 2081 2170 2662 1517 2662 
C 1126 2662 838 2407 678 1960 
L 678 2176 
z
M 1478 25 
C 691 25 691 1200 691 1436 
C 691 1896 909 2560 1504 2560 
C 1613 2560 1926 2560 2138 2120 
C 2253 1870 2253 1609 2253 1289 
C 2253 944 2253 690 2118 434 
C 1978 171 1773 25 1478 25 
z
" id="CMR17-36" transform="scale(0.015625)"/>
        <path d="M 1741 2264 
C 2144 2467 2554 2773 2554 3263 
C 2554 3841 1990 4179 1472 4179 
C 890 4179 378 3759 378 3180 
C 378 3021 416 2747 666 2505 
C 730 2442 998 2251 1171 2130 
C 883 1983 211 1634 211 934 
C 211 279 838 -128 1459 -128 
C 2144 -128 2720 362 2720 1010 
C 2720 1590 2330 1857 2074 2029 
L 1741 2264 
z
M 902 2822 
C 851 2854 595 3051 595 3351 
C 595 3739 998 4032 1459 4032 
C 1965 4032 2336 3676 2336 3262 
C 2336 2669 1670 2331 1638 2331 
C 1632 2331 1626 2331 1574 2370 
L 902 2822 
z
M 2080 1519 
C 2176 1449 2483 1240 2483 851 
C 2483 381 2010 25 1472 25 
C 890 25 448 438 448 940 
C 448 1443 838 1862 1280 2060 
L 2080 1519 
z
" id="CMR17-38" transform="scale(0.015625)"/>
       </defs>
       <use transform="scale(0.996264)" xlink:href="#CMSS17-43"/>
       <use transform="translate(59.855772 0)scale(0.996264)" xlink:href="#CMSS17-4f"/>
       <use transform="translate(128.880027 0)scale(0.996264)" xlink:href="#CMSS17-68"/>
       <use transform="translate(177.08497 0)scale(0.996264)" xlink:href="#CMSS17-2d"/>
       <use transform="translate(208.314083 0)scale(0.996264)" xlink:href="#CMSS17-44"/>
       <use transform="translate(275.856924 0)scale(0.996264)" xlink:href="#CMSS17-2d"/>
       <use transform="translate(307.086037 0)scale(0.996264)" xlink:href="#CMSS17-50"/>
       <use transform="translate(366.821624 0)scale(0.996264)" xlink:href="#CMSS17-74"/>
       <use transform="translate(400.65319 -14.943915)scale(0.697382)" xlink:href="#CMR17-31"/>
       <use transform="translate(432.636372 -14.943915)scale(0.697382)" xlink:href="#CMR17-39"/>
       <use transform="translate(464.619554 -14.943915)scale(0.697382)" xlink:href="#CMR17-32"/>
       <use transform="translate(497.100868 0)scale(0.996264)" xlink:href="#CMSS17-43"/>
       <use transform="translate(556.95664 0)scale(0.996264)" xlink:href="#CMSS17-6f"/>
       <use transform="translate(603.800263 -14.943915)scale(0.697382)" xlink:href="#CMR17-36"/>
       <use transform="translate(635.783445 -14.943915)scale(0.697382)" xlink:href="#CMR17-38"/>
      </g>
     </g>
    </g>
    <g id="xtick_3">
     <g id="line2d_5">
      <g>
       <use style="stroke:#000000;stroke-width:0.8;" x="304.925156" xlink:href="#m227020111c" y="268.473224"/>
      </g>
     </g>
     <g id="line2d_6">
      <g>
       <use style="stroke:#000000;stroke-width:0.8;" x="304.925156" xlink:href="#mec6b01e9e4" y="14.259249"/>
      </g>
     </g>
     <g id="text_3">
      <!-- COh-D-Pt$_{736}$Co$_{679}$ -->
      <g transform="translate(260.301015 280.275404)scale(0.12 -0.12)">
       <defs>
        <path d="M 2886 3941 
L 2886 4081 
L 1382 4081 
C 634 4081 621 4165 595 4288 
L 480 4288 
L 294 3094 
L 410 3094 
C 429 3215 474 3540 550 3661 
C 589 3712 1062 3712 1171 3712 
L 2579 3712 
L 1869 2661 
C 1395 1954 1069 999 1069 165 
C 1069 89 1069 -128 1299 -128 
C 1530 -128 1530 89 1530 171 
L 1530 465 
C 1530 1508 1709 2196 2003 2636 
L 2886 3941 
z
" id="CMR17-37" transform="scale(0.015625)"/>
        <path d="M 1414 2157 
C 1984 2157 2234 1662 2234 1090 
C 2234 320 1824 25 1453 25 
C 1114 25 563 194 390 693 
C 422 680 454 680 486 680 
C 640 680 755 782 755 948 
C 755 1133 614 1216 486 1216 
C 378 1216 211 1165 211 926 
C 211 335 787 -128 1466 -128 
C 2176 -128 2720 430 2720 1085 
C 2720 1707 2208 2157 1600 2227 
C 2086 2328 2554 2756 2554 3329 
C 2554 3820 2048 4179 1472 4179 
C 890 4179 378 3829 378 3329 
C 378 3110 544 3072 627 3072 
C 762 3072 877 3155 877 3321 
C 877 3486 762 3569 627 3569 
C 602 3569 570 3569 544 3557 
C 730 3959 1235 4032 1459 4032 
C 1683 4032 2106 3925 2106 3320 
C 2106 3143 2080 2828 1862 2550 
C 1670 2304 1453 2304 1242 2284 
C 1210 2284 1062 2269 1037 2269 
C 992 2263 966 2257 966 2208 
C 966 2163 973 2157 1101 2157 
L 1414 2157 
z
" id="CMR17-33" transform="scale(0.015625)"/>
       </defs>
       <use transform="scale(0.996264)" xlink:href="#CMSS17-43"/>
       <use transform="translate(59.855772 0)scale(0.996264)" xlink:href="#CMSS17-4f"/>
       <use transform="translate(128.880027 0)scale(0.996264)" xlink:href="#CMSS17-68"/>
       <use transform="translate(177.08497 0)scale(0.996264)" xlink:href="#CMSS17-2d"/>
       <use transform="translate(208.314083 0)scale(0.996264)" xlink:href="#CMSS17-44"/>
       <use transform="translate(275.856924 0)scale(0.996264)" xlink:href="#CMSS17-2d"/>
       <use transform="translate(307.086037 0)scale(0.996264)" xlink:href="#CMSS17-50"/>
       <use transform="translate(366.821624 0)scale(0.996264)" xlink:href="#CMSS17-74"/>
       <use transform="translate(400.65319 -14.943915)scale(0.697382)" xlink:href="#CMR17-37"/>
       <use transform="translate(432.636372 -14.943915)scale(0.697382)" xlink:href="#CMR17-33"/>
       <use transform="translate(464.619554 -14.943915)scale(0.697382)" xlink:href="#CMR17-36"/>
       <use transform="translate(497.100868 0)scale(0.996264)" xlink:href="#CMSS17-43"/>
       <use transform="translate(556.95664 0)scale(0.996264)" xlink:href="#CMSS17-6f"/>
       <use transform="translate(603.800263 -14.943915)scale(0.697382)" xlink:href="#CMR17-36"/>
       <use transform="translate(635.783445 -14.943915)scale(0.697382)" xlink:href="#CMR17-37"/>
       <use transform="translate(667.766627 -14.943915)scale(0.697382)" xlink:href="#CMR17-39"/>
      </g>
     </g>
    </g>
    <g id="xtick_4">
     <g id="line2d_7">
      <g>
       <use style="stroke:#000000;stroke-width:0.8;" x="410.522262" xlink:href="#m227020111c" y="268.473224"/>
      </g>
     </g>
     <g id="line2d_8">
      <g>
       <use style="stroke:#000000;stroke-width:0.8;" x="410.522262" xlink:href="#mec6b01e9e4" y="14.259249"/>
      </g>
     </g>
     <g id="text_4">
      <!-- COh-O-Pt$_{736}$Co$_{679}$ -->
      <g transform="translate(365.790881 280.275404)scale(0.12 -0.12)">
       <use transform="scale(0.996264)" xlink:href="#CMSS17-43"/>
       <use transform="translate(59.855772 0)scale(0.996264)" xlink:href="#CMSS17-4f"/>
       <use transform="translate(128.880027 0)scale(0.996264)" xlink:href="#CMSS17-68"/>
       <use transform="translate(177.08497 0)scale(0.996264)" xlink:href="#CMSS17-2d"/>
       <use transform="translate(208.314083 0)scale(0.996264)" xlink:href="#CMSS17-4f"/>
       <use transform="translate(277.338338 0)scale(0.996264)" xlink:href="#CMSS17-2d"/>
       <use transform="translate(308.567451 0)scale(0.996264)" xlink:href="#CMSS17-50"/>
       <use transform="translate(368.303037 0)scale(0.996264)" xlink:href="#CMSS17-74"/>
       <use transform="translate(402.134604 -14.943915)scale(0.697382)" xlink:href="#CMR17-37"/>
       <use transform="translate(434.117786 -14.943915)scale(0.697382)" xlink:href="#CMR17-33"/>
       <use transform="translate(466.100968 -14.943915)scale(0.697382)" xlink:href="#CMR17-36"/>
       <use transform="translate(498.582282 0)scale(0.996264)" xlink:href="#CMSS17-43"/>
       <use transform="translate(558.438053 0)scale(0.996264)" xlink:href="#CMSS17-6f"/>
       <use transform="translate(605.281677 -14.943915)scale(0.697382)" xlink:href="#CMR17-36"/>
       <use transform="translate(637.264859 -14.943915)scale(0.697382)" xlink:href="#CMR17-37"/>
       <use transform="translate(669.248041 -14.943915)scale(0.697382)" xlink:href="#CMR17-39"/>
      </g>
     </g>
    </g>
    <g id="xtick_5">
     <g id="line2d_9">
      <g>
       <use style="stroke:#000000;stroke-width:0.8;" x="516.119368" xlink:href="#m227020111c" y="268.473224"/>
      </g>
     </g>
     <g id="line2d_10">
      <g>
       <use style="stroke:#000000;stroke-width:0.8;" x="516.119368" xlink:href="#mec6b01e9e4" y="14.259249"/>
      </g>
     </g>
     <g id="text_5">
      <!-- COh-D-Pt$_{975}$Co$_{440}$ -->
      <g transform="translate(471.495228 280.275404)scale(0.12 -0.12)">
       <defs>
        <path d="M 2688 2025 
C 2688 2416 2682 3080 2413 3591 
C 2176 4039 1798 4198 1466 4198 
C 1158 4198 768 4058 525 3597 
C 269 3118 243 2524 243 2025 
C 243 1661 250 1106 448 619 
C 723 -39 1216 -128 1466 -128 
C 1760 -128 2208 -7 2470 600 
C 2662 1042 2688 1559 2688 2025 
z
M 1466 -26 
C 1056 -26 813 325 723 812 
C 653 1188 653 1738 653 2096 
C 653 2588 653 2997 736 3387 
C 858 3929 1216 4096 1466 4096 
C 1728 4096 2067 3923 2189 3400 
C 2272 3036 2278 2607 2278 2096 
C 2278 1680 2278 1169 2202 792 
C 2067 95 1690 -26 1466 -26 
z
" id="CMR17-30" transform="scale(0.015625)"/>
       </defs>
       <use transform="scale(0.996264)" xlink:href="#CMSS17-43"/>
       <use transform="translate(59.855772 0)scale(0.996264)" xlink:href="#CMSS17-4f"/>
       <use transform="translate(128.880027 0)scale(0.996264)" xlink:href="#CMSS17-68"/>
       <use transform="translate(177.08497 0)scale(0.996264)" xlink:href="#CMSS17-2d"/>
       <use transform="translate(208.314083 0)scale(0.996264)" xlink:href="#CMSS17-44"/>
       <use transform="translate(275.856924 0)scale(0.996264)" xlink:href="#CMSS17-2d"/>
       <use transform="translate(307.086037 0)scale(0.996264)" xlink:href="#CMSS17-50"/>
       <use transform="translate(366.821624 0)scale(0.996264)" xlink:href="#CMSS17-74"/>
       <use transform="translate(400.65319 -14.943915)scale(0.697382)" xlink:href="#CMR17-39"/>
       <use transform="translate(432.636372 -14.943915)scale(0.697382)" xlink:href="#CMR17-37"/>
       <use transform="translate(464.619554 -14.943915)scale(0.697382)" xlink:href="#CMR17-35"/>
       <use transform="translate(497.100868 0)scale(0.996264)" xlink:href="#CMSS17-43"/>
       <use transform="translate(556.95664 0)scale(0.996264)" xlink:href="#CMSS17-6f"/>
       <use transform="translate(603.800263 -14.943915)scale(0.697382)" xlink:href="#CMR17-34"/>
       <use transform="translate(635.783445 -14.943915)scale(0.697382)" xlink:href="#CMR17-34"/>
       <use transform="translate(667.766627 -14.943915)scale(0.697382)" xlink:href="#CMR17-30"/>
      </g>
     </g>
    </g>
   </g>
   <g id="matplotlib.axis_2">
    <g id="ytick_1">
     <g id="line2d_11">
      <defs>
       <path d="M 0 0 
L 3.5 0 
" id="m205b3804f3" style="stroke:#000000;stroke-width:0.8;"/>
      </defs>
      <g>
       <use style="stroke:#000000;stroke-width:0.8;" x="53.736039" xlink:href="#m205b3804f3" y="268.473224"/>
      </g>
     </g>
     <g id="text_6">
      <!-- $\mathdefault{0.00}$ -->
      <g transform="translate(32.524625 271.932474)scale(0.1 -0.1)">
       <defs>
        <path d="M 1178 307 
C 1178 492 1024 619 870 619 
C 685 619 557 466 557 313 
C 557 128 710 0 864 0 
C 1050 0 1178 153 1178 307 
z
" id="CMMI12-3a" transform="scale(0.015625)"/>
       </defs>
       <use transform="scale(0.996264)" xlink:href="#CMR17-30"/>
       <use transform="translate(45.690477 0)scale(0.996264)" xlink:href="#CMMI12-3a"/>
       <use transform="translate(72.787654 0)scale(0.996264)" xlink:href="#CMR17-30"/>
       <use transform="translate(118.478131 0)scale(0.996264)" xlink:href="#CMR17-30"/>
      </g>
     </g>
    </g>
    <g id="ytick_2">
     <g id="line2d_12">
      <g>
       <use style="stroke:#000000;stroke-width:0.8;" x="53.736039" xlink:href="#m205b3804f3" y="226.104229"/>
      </g>
     </g>
     <g id="text_7">
      <!-- $\mathdefault{0.05}$ -->
      <g transform="translate(32.524625 229.563478)scale(0.1 -0.1)">
       <use transform="scale(0.996264)" xlink:href="#CMR17-30"/>
       <use transform="translate(45.690477 0)scale(0.996264)" xlink:href="#CMMI12-3a"/>
       <use transform="translate(72.787654 0)scale(0.996264)" xlink:href="#CMR17-30"/>
       <use transform="translate(118.478131 0)scale(0.996264)" xlink:href="#CMR17-35"/>
      </g>
     </g>
    </g>
    <g id="ytick_3">
     <g id="line2d_13">
      <g>
       <use style="stroke:#000000;stroke-width:0.8;" x="53.736039" xlink:href="#m205b3804f3" y="183.735233"/>
      </g>
     </g>
     <g id="text_8">
      <!-- $\mathdefault{0.10}$ -->
      <g transform="translate(32.524625 187.194482)scale(0.1 -0.1)">
       <use transform="scale(0.996264)" xlink:href="#CMR17-30"/>
       <use transform="translate(45.690477 0)scale(0.996264)" xlink:href="#CMMI12-3a"/>
       <use transform="translate(72.787654 0)scale(0.996264)" xlink:href="#CMR17-31"/>
       <use transform="translate(118.478131 0)scale(0.996264)" xlink:href="#CMR17-30"/>
      </g>
     </g>
    </g>
    <g id="ytick_4">
     <g id="line2d_14">
      <g>
       <use style="stroke:#000000;stroke-width:0.8;" x="53.736039" xlink:href="#m205b3804f3" y="141.366237"/>
      </g>
     </g>
     <g id="text_9">
      <!-- $\mathdefault{0.15}$ -->
      <g transform="translate(32.524625 144.825486)scale(0.1 -0.1)">
       <use transform="scale(0.996264)" xlink:href="#CMR17-30"/>
       <use transform="translate(45.690477 0)scale(0.996264)" xlink:href="#CMMI12-3a"/>
       <use transform="translate(72.787654 0)scale(0.996264)" xlink:href="#CMR17-31"/>
       <use transform="translate(118.478131 0)scale(0.996264)" xlink:href="#CMR17-35"/>
      </g>
     </g>
    </g>
    <g id="ytick_5">
     <g id="line2d_15">
      <g>
       <use style="stroke:#000000;stroke-width:0.8;" x="53.736039" xlink:href="#m205b3804f3" y="98.997241"/>
      </g>
     </g>
     <g id="text_10">
      <!-- $\mathdefault{0.20}$ -->
      <g transform="translate(32.524625 102.45649)scale(0.1 -0.1)">
       <use transform="scale(0.996264)" xlink:href="#CMR17-30"/>
       <use transform="translate(45.690477 0)scale(0.996264)" xlink:href="#CMMI12-3a"/>
       <use transform="translate(72.787654 0)scale(0.996264)" xlink:href="#CMR17-32"/>
       <use transform="translate(118.478131 0)scale(0.996264)" xlink:href="#CMR17-30"/>
      </g>
     </g>
    </g>
    <g id="ytick_6">
     <g id="line2d_16">
      <g>
       <use style="stroke:#000000;stroke-width:0.8;" x="53.736039" xlink:href="#m205b3804f3" y="56.628245"/>
      </g>
     </g>
     <g id="text_11">
      <!-- $\mathdefault{0.25}$ -->
      <g transform="translate(32.524625 60.087494)scale(0.1 -0.1)">
       <use transform="scale(0.996264)" xlink:href="#CMR17-30"/>
       <use transform="translate(45.690477 0)scale(0.996264)" xlink:href="#CMMI12-3a"/>
       <use transform="translate(72.787654 0)scale(0.996264)" xlink:href="#CMR17-32"/>
       <use transform="translate(118.478131 0)scale(0.996264)" xlink:href="#CMR17-35"/>
      </g>
     </g>
    </g>
    <g id="ytick_7">
     <g id="line2d_17">
      <g>
       <use style="stroke:#000000;stroke-width:0.8;" x="53.736039" xlink:href="#m205b3804f3" y="14.259249"/>
      </g>
     </g>
     <g id="text_12">
      <!-- $\mathdefault{0.30}$ -->
      <g transform="translate(32.524625 17.718498)scale(0.1 -0.1)">
       <use transform="scale(0.996264)" xlink:href="#CMR17-30"/>
       <use transform="translate(45.690477 0)scale(0.996264)" xlink:href="#CMMI12-3a"/>
       <use transform="translate(72.787654 0)scale(0.996264)" xlink:href="#CMR17-33"/>
       <use transform="translate(118.478131 0)scale(0.996264)" xlink:href="#CMR17-30"/>
      </g>
     </g>
    </g>
    <g id="text_13">
     <!-- Average atomic uncertainty, eV/\AA -->
     <g transform="translate(24.539569 252.416169)rotate(-90)scale(0.16 -0.16)">
      <defs>
       <path d="M 2272 4416 
L 1722 4416 
L 166 0 
L 653 0 
L 1101 1280 
L 2816 1280 
L 3270 0 
L 3827 0 
L 2272 4416 
z
M 2694 1637 
L 1222 1637 
C 1530 2528 1914 3638 1958 3925 
L 1965 3925 
C 2010 3663 2138 3281 2246 2956 
L 2694 1637 
z
" id="CMSS17-41" transform="scale(0.015625)"/>
       <path d="M 2675 2752 
L 2176 2752 
L 1747 1556 
C 1613 1165 1421 627 1389 352 
L 1382 352 
C 1370 468 1318 634 1286 749 
C 1248 890 1197 1056 1158 1172 
L 595 2752 
L 83 2752 
L 1094 0 
L 1664 0 
L 2675 2752 
z
" id="CMSS17-76" transform="scale(0.015625)"/>
       <path d="M 2502 1377 
C 2502 1590 2490 2003 2285 2345 
C 2061 2713 1696 2816 1421 2816 
C 755 2816 192 2188 192 1375 
C 192 582 774 -64 1510 -64 
C 1798 -64 2150 19 2470 248 
C 2470 274 2458 414 2451 420 
C 2451 433 2432 630 2432 656 
C 2125 407 1773 325 1517 325 
C 1107 325 666 667 646 1377 
L 2502 1377 
z
M 698 1728 
C 781 2084 1062 2421 1421 2421 
C 1517 2421 1965 2421 2080 1728 
L 698 1728 
z
" id="CMSS17-65" transform="scale(0.015625)"/>
       <path d="M 954 1363 
C 954 1965 1395 2368 1958 2368 
L 1958 2789 
C 1549 2789 1165 2585 934 2253 
L 934 2758 
L 480 2758 
L 480 0 
L 954 0 
L 954 1363 
z
" id="CMSS17-72" transform="scale(0.015625)"/>
       <path d="M 2406 1791 
C 2406 2392 1978 2808 1402 2808 
C 1120 2808 813 2757 461 2553 
L 499 2135 
C 659 2248 934 2432 1395 2432 
C 1722 2432 1920 2180 1920 1782 
L 1920 1536 
C 896 1536 256 1238 256 726 
C 256 461 416 -64 947 -64 
C 1043 -64 1562 -64 1933 217 
L 1933 -19 
L 2406 -19 
L 2406 1791 
z
M 1920 816 
C 1920 701 1920 548 1728 434 
C 1562 325 1350 325 1261 325 
C 941 325 723 511 723 744 
C 723 1211 1722 1211 1920 1211 
L 1920 816 
z
" id="CMSS17-61" transform="scale(0.015625)"/>
       <path d="M 2848 2808 
C 2483 2808 2170 2738 1914 2617 
C 1702 2777 1485 2808 1338 2808 
C 781 2808 358 2349 358 1814 
C 358 1468 550 1207 563 1195 
C 448 1035 384 863 384 672 
C 384 448 474 289 544 200 
C 211 -3 166 -314 166 -435 
C 166 -898 749 -1280 1498 -1280 
C 2253 -1280 2835 -898 2835 -428 
C 2835 448 1856 448 1587 448 
L 1069 448 
C 973 448 717 448 717 791 
C 717 921 774 1004 781 1010 
C 877 940 1075 832 1338 832 
C 1869 832 2310 1278 2310 1827 
C 2310 2132 2170 2355 2112 2432 
L 2131 2432 
C 2150 2432 2419 2432 2515 2432 
C 2720 2432 2739 2429 2918 2419 
L 2848 2808 
z
M 1338 1182 
C 1120 1182 813 1315 813 1823 
C 813 2375 1165 2464 1331 2464 
C 1549 2464 1856 2331 1856 1823 
C 1856 1271 1504 1182 1338 1182 
z
M 1581 -10 
C 1734 -10 2381 -10 2381 -442 
C 2381 -714 1984 -929 1504 -929 
C 1018 -929 621 -720 621 -435 
C 621 -403 621 -10 1062 -10 
L 1581 -10 
z
" id="CMSS17-67" transform="scale(0.015625)"/>
       <path d="M 4288 1877 
C 4288 2308 4179 2816 3462 2816 
C 2982 2816 2694 2516 2566 2331 
C 2451 2670 2182 2816 1798 2816 
C 1363 2816 1088 2568 941 2389 
L 941 2758 
L 474 2758 
L 474 0 
L 960 0 
L 960 1559 
C 960 1939 1101 2428 1555 2428 
C 2138 2428 2138 2016 2138 1829 
L 2138 0 
L 2624 0 
L 2624 1559 
C 2624 1939 2765 2428 3219 2428 
C 3802 2428 3802 2016 3802 1829 
L 3802 0 
L 4288 0 
L 4288 1877 
z
" id="CMSS17-6d" transform="scale(0.015625)"/>
       <path d="M 979 4183 
L 442 4183 
L 442 3648 
L 979 3648 
L 979 4183 
z
M 947 2739 
L 474 2739 
L 474 0 
L 947 0 
L 947 2739 
z
" id="CMSS17-69" transform="scale(0.015625)"/>
       <path d="M 2464 2541 
C 2464 2585 2170 2714 2093 2739 
C 1882 2816 1613 2816 1542 2816 
C 710 2816 211 2093 211 1363 
C 211 595 768 -64 1517 -64 
C 1946 -64 2253 76 2502 242 
L 2464 664 
C 2189 453 1869 337 1523 337 
C 1024 337 698 774 698 1369 
C 698 1831 909 2414 1549 2414 
C 1901 2414 2099 2343 2394 2145 
L 2464 2541 
z
" id="CMSS17-63" transform="scale(0.015625)"/>
       <path d="M 2618 2739 
L 2131 2739 
L 2131 972 
C 2131 498 1786 306 1421 306 
C 998 306 960 447 960 709 
L 960 2739 
L 474 2739 
L 474 678 
C 474 179 646 -64 1088 -64 
C 1306 -64 1798 -13 2144 306 
L 2144 0 
L 2618 0 
L 2618 2739 
z
" id="CMSS17-75" transform="scale(0.015625)"/>
       <path d="M 2618 1877 
C 2618 2283 2522 2816 1798 2816 
C 1389 2816 1120 2606 941 2389 
L 941 2758 
L 474 2758 
L 474 0 
L 960 0 
L 960 1559 
C 960 1964 1114 2428 1549 2428 
C 2112 2428 2131 2048 2131 1829 
L 2131 0 
L 2618 0 
L 2618 1877 
z
" id="CMSS17-6e" transform="scale(0.015625)"/>
       <path d="M 2675 2752 
L 2176 2752 
C 1632 1294 1446 702 1434 383 
L 1427 383 
C 1408 696 1126 1460 902 2007 
L 602 2752 
L 83 2752 
L 1216 13 
C 1146 -178 1043 -465 1011 -529 
C 870 -885 774 -885 672 -885 
C 646 -885 442 -885 211 -809 
L 250 -1229 
C 410 -1261 570 -1280 685 -1280 
C 845 -1280 1165 -1280 1459 -497 
L 2675 2752 
z
" id="CMSS17-79" transform="scale(0.015625)"/>
       <path d="M 1088 6 
L 1088 510 
L 576 510 
L 576 0 
L 736 0 
L 570 -800 
L 826 -800 
L 1088 6 
z
" id="CMSS17-2c" transform="scale(0.015625)"/>
       <path d="M 3910 4416 
L 3411 4416 
L 2304 1362 
C 2272 1273 2074 688 2035 484 
L 2029 484 
C 1978 726 1773 1292 1664 1604 
L 922 3672 
L 646 4416 
L 83 4416 
L 1715 0 
L 2278 0 
L 3910 4416 
z
" id="CMSS17-56" transform="scale(0.015625)"/>
       <path d="M 2637 4545 
C 2669 4627 2669 4640 2669 4653 
C 2669 4729 2611 4768 2560 4768 
C 2483 4768 2458 4717 2432 4640 
L 365 -1377 
C 333 -1460 333 -1473 333 -1486 
C 333 -1562 390 -1600 442 -1600 
C 518 -1600 544 -1549 570 -1473 
L 2637 4545 
z
" id="CMSS17-2f" transform="scale(0.015625)"/>
       <path d="M 2669 3888 
C 2669 4180 2381 4446 1997 4446 
C 1613 4446 1325 4180 1325 3888 
C 1325 3595 1613 3328 1997 3328 
C 2381 3328 2669 3595 2669 3888 
z
M 1997 3615 
C 1856 3615 1664 3659 1664 3887 
C 1664 4102 1837 4160 1997 4160 
C 2138 4160 2330 4115 2330 3887 
C 2330 3672 2157 3615 1997 3615 
z
" id="CMSS17-17" transform="scale(0.015625)"/>
      </defs>
      <use transform="scale(0.996264)" xlink:href="#CMSS17-41"/>
      <use transform="translate(62.217855 0)scale(0.996264)" xlink:href="#CMSS17-76"/>
      <use transform="translate(105.217997 0)scale(0.996264)" xlink:href="#CMSS17-65"/>
      <use transform="translate(146.856819 0)scale(0.996264)" xlink:href="#CMSS17-72"/>
      <use transform="translate(178.766591 0)scale(0.996264)" xlink:href="#CMSS17-61"/>
      <use transform="translate(223.688512 0)scale(0.996264)" xlink:href="#CMSS17-67"/>
      <use transform="translate(270.532135 0)scale(0.996264)" xlink:href="#CMSS17-65"/>
      <use transform="translate(343.40007 0)scale(0.996264)" xlink:href="#CMSS17-61"/>
      <use transform="translate(388.321991 0)scale(0.996264)" xlink:href="#CMSS17-74"/>
      <use transform="translate(422.153557 0)scale(0.996264)" xlink:href="#CMSS17-6f"/>
      <use transform="translate(468.997181 0)scale(0.996264)" xlink:href="#CMSS17-6d"/>
      <use transform="translate(543.226435 0)scale(0.996264)" xlink:href="#CMSS17-69"/>
      <use transform="translate(565.407158 0)scale(0.996264)" xlink:href="#CMSS17-63"/>
      <use transform="translate(638.275093 0)scale(0.996264)" xlink:href="#CMSS17-75"/>
      <use transform="translate(686.480036 0)scale(0.996264)" xlink:href="#CMSS17-6e"/>
      <use transform="translate(734.68498 0)scale(0.996264)" xlink:href="#CMSS17-63"/>
      <use transform="translate(776.323802 0)scale(0.996264)" xlink:href="#CMSS17-65"/>
      <use transform="translate(817.962624 0)scale(0.996264)" xlink:href="#CMSS17-72"/>
      <use transform="translate(849.872396 0)scale(0.996264)" xlink:href="#CMSS17-74"/>
      <use transform="translate(883.703963 0)scale(0.996264)" xlink:href="#CMSS17-61"/>
      <use transform="translate(928.625884 0)scale(0.996264)" xlink:href="#CMSS17-69"/>
      <use transform="translate(950.806607 0)scale(0.996264)" xlink:href="#CMSS17-6e"/>
      <use transform="translate(999.01155 0)scale(0.996264)" xlink:href="#CMSS17-74"/>
      <use transform="translate(1030.240662 0)scale(0.996264)" xlink:href="#CMSS17-79"/>
      <use transform="translate(1065.433549 0)scale(0.996264)" xlink:href="#CMSS17-2c"/>
      <use transform="translate(1122.686866 0)scale(0.996264)" xlink:href="#CMSS17-65"/>
      <use transform="translate(1164.325688 0)scale(0.996264)" xlink:href="#CMSS17-56"/>
      <use transform="translate(1226.543543 0)scale(0.996264)" xlink:href="#CMSS17-2f"/>
      <use transform="translate(1273.387167 17.618744)scale(0.996264)" xlink:href="#CMSS17-17"/>
      <use transform="translate(1273.387167 0)scale(0.996264)" xlink:href="#CMSS17-41"/>
     </g>
    </g>
   </g>
   <g id="patch_8">
    <path d="M 53.736039 268.473224 
L 53.736039 14.259249 
" style="fill:none;stroke:#000000;stroke-linecap:square;stroke-linejoin:miter;stroke-width:0.8;"/>
   </g>
   <g id="patch_9">
    <path d="M 556.114273 268.473224 
L 556.114273 14.259249 
" style="fill:none;stroke:#000000;stroke-linecap:square;stroke-linejoin:miter;stroke-width:0.8;"/>
   </g>
   <g id="patch_10">
    <path d="M 53.736039 268.473224 
L 556.114273 268.473224 
" style="fill:none;stroke:#000000;stroke-linecap:square;stroke-linejoin:miter;stroke-width:0.8;"/>
   </g>
   <g id="patch_11">
    <path d="M 53.736039 14.259249 
L 556.114273 14.259249 
" style="fill:none;stroke:#000000;stroke-linecap:square;stroke-linejoin:miter;stroke-width:0.8;"/>
   </g>
  </g>
  <g id="axes_2">
   <g id="patch_12">
    <path d="M 53.736039 551.073224 
L 556.114273 551.073224 
L 556.114273 296.859249 
L 53.736039 296.859249 
z
" style="fill:#ffffff;"/>
   </g>
   <g id="patch_13">
    <path clip-path="url(#p90ae354f96)" d="M 76.571413 551.073224 
L 110.890473 551.073224 
L 110.890473 407.018638 
L 76.571413 407.018638 
z
" style="fill:#000080;"/>
   </g>
   <g id="patch_14">
    <path clip-path="url(#p90ae354f96)" d="M 182.168519 551.073224 
L 216.487579 551.073224 
L 216.487579 398.544839 
L 182.168519 398.544839 
z
" style="fill:#000080;"/>
   </g>
   <g id="patch_15">
    <path clip-path="url(#p90ae354f96)" d="M 287.765626 551.073224 
L 322.084685 551.073224 
L 322.084685 330.754446 
L 287.765626 330.754446 
z
" style="fill:#000080;"/>
   </g>
   <g id="patch_16">
    <path clip-path="url(#p90ae354f96)" d="M 393.362732 551.073224 
L 427.681792 551.073224 
L 427.681792 373.123442 
L 393.362732 373.123442 
z
" style="fill:#000080;"/>
   </g>
   <g id="patch_17">
    <path clip-path="url(#p90ae354f96)" d="M 498.959839 551.073224 
L 533.278898 551.073224 
L 533.278898 381.597241 
L 498.959839 381.597241 
z
" style="fill:#000080;"/>
   </g>
   <g id="matplotlib.axis_3">
    <g id="xtick_6">
     <g id="line2d_18">
      <g>
       <use style="stroke:#000000;stroke-width:0.8;" x="93.730943" xlink:href="#m227020111c" y="551.073224"/>
      </g>
     </g>
     <g id="line2d_19">
      <g>
       <use style="stroke:#000000;stroke-width:0.8;" x="93.730943" xlink:href="#mec6b01e9e4" y="296.859249"/>
      </g>
     </g>
     <g id="text_14">
      <!-- Ih-Pt$_{1415}$ -->
      <g transform="translate(72.882078 562.875404)scale(0.12 -0.12)">
       <defs>
        <path d="M 1094 4416 
L 557 4416 
L 557 0 
L 1094 0 
L 1094 4416 
z
" id="CMSS17-49" transform="scale(0.015625)"/>
       </defs>
       <use transform="scale(0.996264)" xlink:href="#CMSS17-49"/>
       <use transform="translate(25.783926 0)scale(0.996264)" xlink:href="#CMSS17-68"/>
       <use transform="translate(73.988869 0)scale(0.996264)" xlink:href="#CMSS17-2d"/>
       <use transform="translate(105.217981 0)scale(0.996264)" xlink:href="#CMSS17-50"/>
       <use transform="translate(164.953568 0)scale(0.996264)" xlink:href="#CMSS17-74"/>
       <use transform="translate(198.785134 -14.943915)scale(0.697382)" xlink:href="#CMR17-31"/>
       <use transform="translate(230.768316 -14.943915)scale(0.697382)" xlink:href="#CMR17-34"/>
       <use transform="translate(262.751498 -14.943915)scale(0.697382)" xlink:href="#CMR17-31"/>
       <use transform="translate(294.73468 -14.943915)scale(0.697382)" xlink:href="#CMR17-35"/>
      </g>
     </g>
    </g>
    <g id="xtick_7">
     <g id="line2d_20">
      <g>
       <use style="stroke:#000000;stroke-width:0.8;" x="199.328049" xlink:href="#m227020111c" y="551.073224"/>
      </g>
     </g>
     <g id="line2d_21">
      <g>
       <use style="stroke:#000000;stroke-width:0.8;" x="199.328049" xlink:href="#mec6b01e9e4" y="296.859249"/>
      </g>
     </g>
     <g id="text_15">
      <!-- Ih-D-Pt$_{1150}$Co$_{265}$ -->
      <g transform="translate(159.05209 562.875404)scale(0.12 -0.12)">
       <use transform="scale(0.996264)" xlink:href="#CMSS17-49"/>
       <use transform="translate(25.783926 0)scale(0.996264)" xlink:href="#CMSS17-68"/>
       <use transform="translate(73.988869 0)scale(0.996264)" xlink:href="#CMSS17-2d"/>
       <use transform="translate(105.217981 0)scale(0.996264)" xlink:href="#CMSS17-44"/>
       <use transform="translate(172.760823 0)scale(0.996264)" xlink:href="#CMSS17-2d"/>
       <use transform="translate(203.989936 0)scale(0.996264)" xlink:href="#CMSS17-50"/>
       <use transform="translate(263.725522 0)scale(0.996264)" xlink:href="#CMSS17-74"/>
       <use transform="translate(297.557089 -14.943915)scale(0.697382)" xlink:href="#CMR17-31"/>
       <use transform="translate(329.540271 -14.943915)scale(0.697382)" xlink:href="#CMR17-31"/>
       <use transform="translate(361.523453 -14.943915)scale(0.697382)" xlink:href="#CMR17-35"/>
       <use transform="translate(393.506635 -14.943915)scale(0.697382)" xlink:href="#CMR17-30"/>
       <use transform="translate(425.987949 0)scale(0.996264)" xlink:href="#CMSS17-43"/>
       <use transform="translate(485.84372 0)scale(0.996264)" xlink:href="#CMSS17-6f"/>
       <use transform="translate(532.687344 -14.943915)scale(0.697382)" xlink:href="#CMR17-32"/>
       <use transform="translate(564.670526 -14.943915)scale(0.697382)" xlink:href="#CMR17-36"/>
       <use transform="translate(596.653708 -14.943915)scale(0.697382)" xlink:href="#CMR17-35"/>
      </g>
     </g>
    </g>
    <g id="xtick_8">
     <g id="line2d_22">
      <g>
       <use style="stroke:#000000;stroke-width:0.8;" x="304.925156" xlink:href="#m227020111c" y="551.073224"/>
      </g>
     </g>
     <g id="line2d_23">
      <g>
       <use style="stroke:#000000;stroke-width:0.8;" x="304.925156" xlink:href="#mec6b01e9e4" y="296.859249"/>
      </g>
     </g>
     <g id="text_16">
      <!-- Ih-D-Pt$_{736}$Co$_{679}$ -->
      <g transform="translate(266.766288 562.875404)scale(0.12 -0.12)">
       <use transform="scale(0.996264)" xlink:href="#CMSS17-49"/>
       <use transform="translate(25.783926 0)scale(0.996264)" xlink:href="#CMSS17-68"/>
       <use transform="translate(73.988869 0)scale(0.996264)" xlink:href="#CMSS17-2d"/>
       <use transform="translate(105.217981 0)scale(0.996264)" xlink:href="#CMSS17-44"/>
       <use transform="translate(172.760823 0)scale(0.996264)" xlink:href="#CMSS17-2d"/>
       <use transform="translate(203.989936 0)scale(0.996264)" xlink:href="#CMSS17-50"/>
       <use transform="translate(263.725522 0)scale(0.996264)" xlink:href="#CMSS17-74"/>
       <use transform="translate(297.557089 -14.943915)scale(0.697382)" xlink:href="#CMR17-37"/>
       <use transform="translate(329.540271 -14.943915)scale(0.697382)" xlink:href="#CMR17-33"/>
       <use transform="translate(361.523453 -14.943915)scale(0.697382)" xlink:href="#CMR17-36"/>
       <use transform="translate(394.004767 0)scale(0.996264)" xlink:href="#CMSS17-43"/>
       <use transform="translate(453.860538 0)scale(0.996264)" xlink:href="#CMSS17-6f"/>
       <use transform="translate(500.704162 -14.943915)scale(0.697382)" xlink:href="#CMR17-36"/>
       <use transform="translate(532.687344 -14.943915)scale(0.697382)" xlink:href="#CMR17-37"/>
       <use transform="translate(564.670526 -14.943915)scale(0.697382)" xlink:href="#CMR17-39"/>
      </g>
     </g>
    </g>
    <g id="xtick_9">
     <g id="line2d_24">
      <g>
       <use style="stroke:#000000;stroke-width:0.8;" x="410.522262" xlink:href="#m227020111c" y="551.073224"/>
      </g>
     </g>
     <g id="line2d_25">
      <g>
       <use style="stroke:#000000;stroke-width:0.8;" x="410.522262" xlink:href="#mec6b01e9e4" y="296.859249"/>
      </g>
     </g>
     <g id="text_17">
      <!-- Ih-D-Pt$_{3092}$Co$_{1991}$ -->
      <g transform="translate(368.129211 562.875404)scale(0.12 -0.12)">
       <use transform="scale(0.996264)" xlink:href="#CMSS17-49"/>
       <use transform="translate(25.783926 0)scale(0.996264)" xlink:href="#CMSS17-68"/>
       <use transform="translate(73.988869 0)scale(0.996264)" xlink:href="#CMSS17-2d"/>
       <use transform="translate(105.217981 0)scale(0.996264)" xlink:href="#CMSS17-44"/>
       <use transform="translate(172.760823 0)scale(0.996264)" xlink:href="#CMSS17-2d"/>
       <use transform="translate(203.989936 0)scale(0.996264)" xlink:href="#CMSS17-50"/>
       <use transform="translate(263.725522 0)scale(0.996264)" xlink:href="#CMSS17-74"/>
       <use transform="translate(297.557089 -14.943915)scale(0.697382)" xlink:href="#CMR17-33"/>
       <use transform="translate(329.540271 -14.943915)scale(0.697382)" xlink:href="#CMR17-30"/>
       <use transform="translate(361.523453 -14.943915)scale(0.697382)" xlink:href="#CMR17-39"/>
       <use transform="translate(393.506635 -14.943915)scale(0.697382)" xlink:href="#CMR17-32"/>
       <use transform="translate(425.987949 0)scale(0.996264)" xlink:href="#CMSS17-43"/>
       <use transform="translate(485.84372 0)scale(0.996264)" xlink:href="#CMSS17-6f"/>
       <use transform="translate(532.687344 -14.943915)scale(0.697382)" xlink:href="#CMR17-31"/>
       <use transform="translate(564.670526 -14.943915)scale(0.697382)" xlink:href="#CMR17-39"/>
       <use transform="translate(596.653708 -14.943915)scale(0.697382)" xlink:href="#CMR17-39"/>
       <use transform="translate(628.63689 -14.943915)scale(0.697382)" xlink:href="#CMR17-31"/>
      </g>
     </g>
    </g>
    <g id="xtick_10">
     <g id="line2d_26">
      <g>
       <use style="stroke:#000000;stroke-width:0.8;" x="516.119368" xlink:href="#m227020111c" y="551.073224"/>
      </g>
     </g>
     <g id="line2d_27">
      <g>
       <use style="stroke:#000000;stroke-width:0.8;" x="516.119368" xlink:href="#mec6b01e9e4" y="296.859249"/>
      </g>
     </g>
     <g id="text_18">
      <!-- Ih-D-Pt$_{3694}$Co$_{1389}$ -->
      <g transform="translate(473.726318 562.875404)scale(0.12 -0.12)">
       <use transform="scale(0.996264)" xlink:href="#CMSS17-49"/>
       <use transform="translate(25.783926 0)scale(0.996264)" xlink:href="#CMSS17-68"/>
       <use transform="translate(73.988869 0)scale(0.996264)" xlink:href="#CMSS17-2d"/>
       <use transform="translate(105.217981 0)scale(0.996264)" xlink:href="#CMSS17-44"/>
       <use transform="translate(172.760823 0)scale(0.996264)" xlink:href="#CMSS17-2d"/>
       <use transform="translate(203.989936 0)scale(0.996264)" xlink:href="#CMSS17-50"/>
       <use transform="translate(263.725522 0)scale(0.996264)" xlink:href="#CMSS17-74"/>
       <use transform="translate(297.557089 -14.943915)scale(0.697382)" xlink:href="#CMR17-33"/>
       <use transform="translate(329.540271 -14.943915)scale(0.697382)" xlink:href="#CMR17-36"/>
       <use transform="translate(361.523453 -14.943915)scale(0.697382)" xlink:href="#CMR17-39"/>
       <use transform="translate(393.506635 -14.943915)scale(0.697382)" xlink:href="#CMR17-34"/>
       <use transform="translate(425.987949 0)scale(0.996264)" xlink:href="#CMSS17-43"/>
       <use transform="translate(485.84372 0)scale(0.996264)" xlink:href="#CMSS17-6f"/>
       <use transform="translate(532.687344 -14.943915)scale(0.697382)" xlink:href="#CMR17-31"/>
       <use transform="translate(564.670526 -14.943915)scale(0.697382)" xlink:href="#CMR17-33"/>
       <use transform="translate(596.653708 -14.943915)scale(0.697382)" xlink:href="#CMR17-38"/>
       <use transform="translate(628.63689 -14.943915)scale(0.697382)" xlink:href="#CMR17-39"/>
      </g>
     </g>
    </g>
   </g>
   <g id="matplotlib.axis_4">
    <g id="ytick_8">
     <g id="line2d_28">
      <g>
       <use style="stroke:#000000;stroke-width:0.8;" x="53.736039" xlink:href="#m205b3804f3" y="551.073224"/>
      </g>
     </g>
     <g id="text_19">
      <!-- $\mathdefault{0.00}$ -->
      <g transform="translate(32.524625 554.532474)scale(0.1 -0.1)">
       <use transform="scale(0.996264)" xlink:href="#CMR17-30"/>
       <use transform="translate(45.690477 0)scale(0.996264)" xlink:href="#CMMI12-3a"/>
       <use transform="translate(72.787654 0)scale(0.996264)" xlink:href="#CMR17-30"/>
       <use transform="translate(118.478131 0)scale(0.996264)" xlink:href="#CMR17-30"/>
      </g>
     </g>
    </g>
    <g id="ytick_9">
     <g id="line2d_29">
      <g>
       <use style="stroke:#000000;stroke-width:0.8;" x="53.736039" xlink:href="#m205b3804f3" y="508.704229"/>
      </g>
     </g>
     <g id="text_20">
      <!-- $\mathdefault{0.05}$ -->
      <g transform="translate(32.524625 512.163478)scale(0.1 -0.1)">
       <use transform="scale(0.996264)" xlink:href="#CMR17-30"/>
       <use transform="translate(45.690477 0)scale(0.996264)" xlink:href="#CMMI12-3a"/>
       <use transform="translate(72.787654 0)scale(0.996264)" xlink:href="#CMR17-30"/>
       <use transform="translate(118.478131 0)scale(0.996264)" xlink:href="#CMR17-35"/>
      </g>
     </g>
    </g>
    <g id="ytick_10">
     <g id="line2d_30">
      <g>
       <use style="stroke:#000000;stroke-width:0.8;" x="53.736039" xlink:href="#m205b3804f3" y="466.335233"/>
      </g>
     </g>
     <g id="text_21">
      <!-- $\mathdefault{0.10}$ -->
      <g transform="translate(32.524625 469.794482)scale(0.1 -0.1)">
       <use transform="scale(0.996264)" xlink:href="#CMR17-30"/>
       <use transform="translate(45.690477 0)scale(0.996264)" xlink:href="#CMMI12-3a"/>
       <use transform="translate(72.787654 0)scale(0.996264)" xlink:href="#CMR17-31"/>
       <use transform="translate(118.478131 0)scale(0.996264)" xlink:href="#CMR17-30"/>
      </g>
     </g>
    </g>
    <g id="ytick_11">
     <g id="line2d_31">
      <g>
       <use style="stroke:#000000;stroke-width:0.8;" x="53.736039" xlink:href="#m205b3804f3" y="423.966237"/>
      </g>
     </g>
     <g id="text_22">
      <!-- $\mathdefault{0.15}$ -->
      <g transform="translate(32.524625 427.425486)scale(0.1 -0.1)">
       <use transform="scale(0.996264)" xlink:href="#CMR17-30"/>
       <use transform="translate(45.690477 0)scale(0.996264)" xlink:href="#CMMI12-3a"/>
       <use transform="translate(72.787654 0)scale(0.996264)" xlink:href="#CMR17-31"/>
       <use transform="translate(118.478131 0)scale(0.996264)" xlink:href="#CMR17-35"/>
      </g>
     </g>
    </g>
    <g id="ytick_12">
     <g id="line2d_32">
      <g>
       <use style="stroke:#000000;stroke-width:0.8;" x="53.736039" xlink:href="#m205b3804f3" y="381.597241"/>
      </g>
     </g>
     <g id="text_23">
      <!-- $\mathdefault{0.20}$ -->
      <g transform="translate(32.524625 385.05649)scale(0.1 -0.1)">
       <use transform="scale(0.996264)" xlink:href="#CMR17-30"/>
       <use transform="translate(45.690477 0)scale(0.996264)" xlink:href="#CMMI12-3a"/>
       <use transform="translate(72.787654 0)scale(0.996264)" xlink:href="#CMR17-32"/>
       <use transform="translate(118.478131 0)scale(0.996264)" xlink:href="#CMR17-30"/>
      </g>
     </g>
    </g>
    <g id="ytick_13">
     <g id="line2d_33">
      <g>
       <use style="stroke:#000000;stroke-width:0.8;" x="53.736039" xlink:href="#m205b3804f3" y="339.228245"/>
      </g>
     </g>
     <g id="text_24">
      <!-- $\mathdefault{0.25}$ -->
      <g transform="translate(32.524625 342.687494)scale(0.1 -0.1)">
       <use transform="scale(0.996264)" xlink:href="#CMR17-30"/>
       <use transform="translate(45.690477 0)scale(0.996264)" xlink:href="#CMMI12-3a"/>
       <use transform="translate(72.787654 0)scale(0.996264)" xlink:href="#CMR17-32"/>
       <use transform="translate(118.478131 0)scale(0.996264)" xlink:href="#CMR17-35"/>
      </g>
     </g>
    </g>
    <g id="ytick_14">
     <g id="line2d_34">
      <g>
       <use style="stroke:#000000;stroke-width:0.8;" x="53.736039" xlink:href="#m205b3804f3" y="296.859249"/>
      </g>
     </g>
     <g id="text_25">
      <!-- $\mathdefault{0.30}$ -->
      <g transform="translate(32.524625 300.318498)scale(0.1 -0.1)">
       <use transform="scale(0.996264)" xlink:href="#CMR17-30"/>
       <use transform="translate(45.690477 0)scale(0.996264)" xlink:href="#CMMI12-3a"/>
       <use transform="translate(72.787654 0)scale(0.996264)" xlink:href="#CMR17-33"/>
       <use transform="translate(118.478131 0)scale(0.996264)" xlink:href="#CMR17-30"/>
      </g>
     </g>
    </g>
    <g id="text_26">
     <!-- Average atomic uncertainty, eV/\AA -->
     <g transform="translate(24.539569 535.016169)rotate(-90)scale(0.16 -0.16)">
      <use transform="scale(0.996264)" xlink:href="#CMSS17-41"/>
      <use transform="translate(62.217855 0)scale(0.996264)" xlink:href="#CMSS17-76"/>
      <use transform="translate(105.217997 0)scale(0.996264)" xlink:href="#CMSS17-65"/>
      <use transform="translate(146.856819 0)scale(0.996264)" xlink:href="#CMSS17-72"/>
      <use transform="translate(178.766591 0)scale(0.996264)" xlink:href="#CMSS17-61"/>
      <use transform="translate(223.688512 0)scale(0.996264)" xlink:href="#CMSS17-67"/>
      <use transform="translate(270.532135 0)scale(0.996264)" xlink:href="#CMSS17-65"/>
      <use transform="translate(343.40007 0)scale(0.996264)" xlink:href="#CMSS17-61"/>
      <use transform="translate(388.321991 0)scale(0.996264)" xlink:href="#CMSS17-74"/>
      <use transform="translate(422.153557 0)scale(0.996264)" xlink:href="#CMSS17-6f"/>
      <use transform="translate(468.997181 0)scale(0.996264)" xlink:href="#CMSS17-6d"/>
      <use transform="translate(543.226435 0)scale(0.996264)" xlink:href="#CMSS17-69"/>
      <use transform="translate(565.407158 0)scale(0.996264)" xlink:href="#CMSS17-63"/>
      <use transform="translate(638.275093 0)scale(0.996264)" xlink:href="#CMSS17-75"/>
      <use transform="translate(686.480036 0)scale(0.996264)" xlink:href="#CMSS17-6e"/>
      <use transform="translate(734.68498 0)scale(0.996264)" xlink:href="#CMSS17-63"/>
      <use transform="translate(776.323802 0)scale(0.996264)" xlink:href="#CMSS17-65"/>
      <use transform="translate(817.962624 0)scale(0.996264)" xlink:href="#CMSS17-72"/>
      <use transform="translate(849.872396 0)scale(0.996264)" xlink:href="#CMSS17-74"/>
      <use transform="translate(883.703963 0)scale(0.996264)" xlink:href="#CMSS17-61"/>
      <use transform="translate(928.625884 0)scale(0.996264)" xlink:href="#CMSS17-69"/>
      <use transform="translate(950.806607 0)scale(0.996264)" xlink:href="#CMSS17-6e"/>
      <use transform="translate(999.01155 0)scale(0.996264)" xlink:href="#CMSS17-74"/>
      <use transform="translate(1030.240662 0)scale(0.996264)" xlink:href="#CMSS17-79"/>
      <use transform="translate(1065.433549 0)scale(0.996264)" xlink:href="#CMSS17-2c"/>
      <use transform="translate(1122.686866 0)scale(0.996264)" xlink:href="#CMSS17-65"/>
      <use transform="translate(1164.325688 0)scale(0.996264)" xlink:href="#CMSS17-56"/>
      <use transform="translate(1226.543543 0)scale(0.996264)" xlink:href="#CMSS17-2f"/>
      <use transform="translate(1273.387167 17.618744)scale(0.996264)" xlink:href="#CMSS17-17"/>
      <use transform="translate(1273.387167 0)scale(0.996264)" xlink:href="#CMSS17-41"/>
     </g>
    </g>
   </g>
   <g id="patch_18">
    <path d="M 53.736039 551.073224 
L 53.736039 296.859249 
" style="fill:none;stroke:#000000;stroke-linecap:square;stroke-linejoin:miter;stroke-width:0.8;"/>
   </g>
   <g id="patch_19">
    <path d="M 556.114273 551.073224 
L 556.114273 296.859249 
" style="fill:none;stroke:#000000;stroke-linecap:square;stroke-linejoin:miter;stroke-width:0.8;"/>
   </g>
   <g id="patch_20">
    <path d="M 53.736039 551.073224 
L 556.114273 551.073224 
" style="fill:none;stroke:#000000;stroke-linecap:square;stroke-linejoin:miter;stroke-width:0.8;"/>
   </g>
   <g id="patch_21">
    <path d="M 53.736039 296.859249 
L 556.114273 296.859249 
" style="fill:none;stroke:#000000;stroke-linecap:square;stroke-linejoin:miter;stroke-width:0.8;"/>
   </g>
  </g>
 </g>
 <defs>
  <clipPath id="p0852900eb4">
   <rect height="254.213975" width="502.378234" x="53.736039" y="14.259249"/>
  </clipPath>
  <clipPath id="p90ae354f96">
   <rect height="254.213975" width="502.378234" x="53.736039" y="296.859249"/>
  </clipPath>
 </defs>
</svg>
